inDegrees=yes
name=ik_S51_A13_T02
DataType=double
version=3
OpenSimVersion=4.3-2021-08-27-4bc7ad9
endheader
time	pelvis_tilt	pelvis_list	pelvis_rotation	pelvis_tx	pelvis_ty	pelvis_tz	hip_flexion_r	hip_adduction_r	hip_rotation_r	knee_angle_r	knee_angle_r_beta	ankle_angle_r	subtalar_angle_r	mtp_angle_r	hip_flexion_l	hip_adduction_l	hip_rotation_l	knee_angle_l	knee_angle_l_beta	ankle_angle_l	subtalar_angle_l	mtp_angle_l	lumbar_extension	lumbar_bending	lumbar_rotation	arm_flex_r	arm_add_r	arm_rot_r	elbow_flex_r	pro_sup_r	wrist_flex_r	wrist_dev_r	arm_flex_l	arm_add_l	arm_rot_l	elbow_flex_l	pro_sup_l	wrist_flex_l	wrist_dev_l
0	0	0	0	0	0.9399999999999999	0	0	0	0	0	0	0	0	0	0	0	0	0	0	0	0	0	0	0	0	0	0	0	0	89.99999999963507	0	0	0	0	0	0	89.99999999869995	0	0
0.02	0.06844856382076291	1.696673562369675	20.7165951261476	0	0.9399999999999999	0	3.205368045873956	-1.509780425382681	-1.08205964288396	5.040275399646745	0.08796940093110875	0	0	0	3.205368045873956	-1.509780425382681	-1.08205964288396	5.040275399646745	0.08796940093110875	0	0	0	1.523863712792173	-1.740985616846842	4.716417269724228	7.279300904207846	-4.870805564832613	-5.831077473985941	-9.789311995034531	179.8374063289536	0	0	12.48430538787088	0.3806625524460814	0.2447467434147155	7.280345637789226	172.6619725451663	0	0
0.04	0.0522679472326277	1.693262073153313	20.75737406905105	0	0.9399999999999999	0	3.223221317838169	-1.518935996532029	-1.088156603878551	5.064207348771653	0.08838709223975816	0	0	0	3.223221317838169	-1.518935996532029	-1.088156603878551	5.064207348771653	0.08838709223975816	0	0	0	1.508143871507377	-1.738523748592232	4.694436040185367	7.257617129043028	-4.855086232389392	-5.925135078460051	-9.787095987033984	179.83223746275	0	0	12.45100598383776	0.4116126696697227	0.3854926162852471	7.38521476085397	172.5126485062904	0	0
0.06	0.009188958417592213	1.676852283993016	20.80396196757636	0	0.9399999999999999	0	3.241720426757334	-1.528414674753241	-1.094473901091062	5.088980891618662	0.08881947212982236	0	0	0	3.241720426757334	-1.528414674753241	-1.094473901091062	5.088980891618662	0.08881947212982236	0	0	0	1.462746152848707	-1.738921736596692	4.664328848151544	7.338304231142298	-4.858701715910831	-5.96120979306207	-9.78826833257164	179.8264503485134	0	0	12.48756771941522	0.4261670928846636	0.5073674340592738	7.695721283036026	172.6924061713492	0	0
0.08	-0.01177973557462089	1.676202670082602	20.83211134852571	0	0.9399999999999999	0	3.257814478136039	-1.536670754672242	-1.099972278800432	5.110508329333476	0.08919519679746386	0	0	0	3.257814478136039	-1.536670754672242	-1.099972278800432	5.110508329333476	0.08919519679746386	0	0	0	1.44348046437542	-1.732318107869247	4.643857866546614	7.331336821190665	-4.857041577720206	-6.064240354834594	-9.79057248050305	179.8210347024065	0	0	12.48938155290819	0.4436290526728711	0.5374037254425115	7.736601877535	172.6645276728172	0	0
0.1	-0.0502705008361181	1.658273307823276	20.88577804180827	0	0.9399999999999999	0	3.280026005482151	-1.548087371620382	-1.107565163830237	5.140179707413183	0.08971306003855882	0	0	0	3.280026005482151	-1.548087371620382	-1.107565163830237	5.140179707413183	0.08971306003855882	0	0	0	1.400715438975352	-1.735004658177405	4.647096777514109	7.398802021861981	-4.877136680523676	-6.146628654269818	-9.794301991286739	179.8161062693808	0	0	12.5518300922499	0.4473770901499052	0.63337509793973	7.831855893948726	172.3388231619754	0	0
0.12	-0.07765581225467078	1.640324893678169	20.94513263099036	0	0.9399999999999999	0	3.305307401084728	-1.561077712474113	-1.116208716750165	5.173904880841553	0.09030167535568998	0	0	0	3.305307401084728	-1.561077712474113	-1.116208716750165	5.173904880841553	0.09030167535568998	0	0	0	1.368158872530884	-1.741457364906063	4.651321542836269	7.394991567565953	-4.882102815143205	-6.204928750723037	-9.791297253314049	179.8166421306693	0	0	12.59742110031548	0.4400518572489849	0.7629366074151989	7.74784207279601	171.9573784172524	0	0
0.14	-0.07840678567051693	1.634032859502793	20.97759203095016	0	0.9399999999999999	0	3.320321439107335	-1.568783484764555	-1.121341534028003	5.193912014073725	0.09065086570447657	0	0	0	3.320321439107335	-1.568783484764555	-1.121341534028003	5.193912014073725	0.09065086570447657	0	0	0	1.366129123969921	-1.747429184485101	4.612837864614055	7.394705361115802	-4.855782434936022	-5.990327729643115	-9.790322280893307	179.8060313020822	0	0	12.5891521652029	0.4263825105337437	0.789906834086022	7.603818759800704	171.6584595984638	0	0
